# xmcd CD database file
#
# Track frame offsets:
#	150
#	28172
#	52812
#	81262
#	101857
#	130020
#	145649
#	174832
#	195264
#	210371
#	232251
#	253027
#
# Disc length: 3715 seconds
#
# Revision: 1
# Processed by: cddbd v1.5.2PL0 Copyright (c) Steve Scherf et al.
# Submitted via: CDex 1.51
#
DISCID=9a0e810c
DTITLE=Arnd Stein - Top-Hits zum Entspannen  Vol.3
DYEAR=2000
DGENRE=
TTITLE0=Neubeginn
TTITLE1=Südseeträume
TTITLE2=Am Bergsee
TTITLE3=Impression
TTITLE4=Dünenlandschaft
TTITLE5=Gedankenflug
TTITLE6=Südwind
TTITLE7=Morgenstimmung
TTITLE8=Weisheit
TTITLE9=Blütenzauber
TTITLE10=Unendlichkeit
TTITLE11=Abendlied
EXTD=YEAR: 2000
EXTT0=
EXTT1=
EXTT2=
EXTT3=
EXTT4=
EXTT5=
EXTT6=
EXTT7=
EXTT8=
EXTT9=
EXTT10=
EXTT11=
PLAYORDER=
